<svg width="42" height="42" viewBox="0 0 42 42" fill="none" xmlns="http://www.w3.org/2000/svg">
    <defs>
        <radialGradient id="paint0_radial_920_317" cx="0" cy="0" r="1" gradientUnits="userSpaceOnUse"
            gradientTransform="translate(17.6946 14.1915) scale(20.267)">
            <stop stop-color="#FFE030" />
            <stop offset="1" stop-color="#FFB92E" />
        </radialGradient>
        <radialGradient id="paint1_radial_920_317" cx="0" cy="0" r="1" gradientUnits="userSpaceOnUse"
            gradientTransform="translate(17.6946 14.1915) scale(15.945)">
            <stop stop-color="#FFEA5F" />
            <stop offset="1" stop-color="#FFBC47" stop-opacity="0" />
        </radialGradient>
        <radialGradient id="paint2_radial_920_317" cx="0" cy="0" r="1" gradientUnits="userSpaceOnUse"
            gradientTransform="translate(21 29.1995) scale(9.2548 9.25479)">
            <stop offset="0.00132565" stop-color="#7A4400" />
            <stop offset="1" stop-color="#643800" />
        </radialGradient>
        <linearGradient id="paint3_linear_920_317" x1="13.4328" y1="15.1183" x2="12.9553" y2="13.4136"
            gradientUnits="userSpaceOnUse">
            <stop offset="0.00132565" stop-color="#3C2200" />
            <stop offset="1" stop-color="#7A4400" />
        </linearGradient>
        <radialGradient id="paint4_radial_920_317" cx="0" cy="0" r="1" gradientUnits="userSpaceOnUse"
            gradientTransform="translate(14.5433 19.7773) rotate(175.474) scale(2.59186 1.83784)">
            <stop offset="0.00132565" stop-color="#7A4400" />
            <stop offset="1" stop-color="#643800" />
        </radialGradient>
        <radialGradient id="paint5_radial_920_317" cx="0" cy="0" r="1" gradientUnits="userSpaceOnUse"
            gradientTransform="translate(21.1386 32.4555) scale(7.67021 2.3187)">
            <stop offset="0.2479" stop-color="#FF0000" />
            <stop offset="1" stop-color="#C20000" />
        </radialGradient>
        <linearGradient id="paint6_linear_920_317" x1="32.7921" y1="27.2973" x2="9.3512" y2="27.2973"
            gradientUnits="userSpaceOnUse">
            <stop offset="0.00132565" stop-color="#3C2200" />
            <stop offset="0.5" stop-color="#512D00" />
            <stop offset="1" stop-color="#3C2200" />
        </linearGradient>
        <radialGradient id="paint7_radial_920_317" cx="0" cy="0" r="1" gradientUnits="userSpaceOnUse"
            gradientTransform="translate(20.9999 26.618) scale(20.296 20.296)">
            <stop offset="0.00132565" stop-color="white" />
            <stop offset="1" stop-color="#A9BCBE" />
        </radialGradient>
        <linearGradient id="paint8_linear_920_317" x1="14.796" y1="16.5151" x2="14.5903" y2="19.3362"
            gradientUnits="userSpaceOnUse">
            <stop offset="0.00132565" stop-color="#3C2200" />
            <stop offset="1" stop-color="#512D00" />
        </linearGradient>
        <linearGradient id="paint9_linear_920_317" x1="28.5683" y1="15.1185" x2="29.0458" y2="13.4137"
            gradientUnits="userSpaceOnUse">
            <stop offset="0.00132565" stop-color="#3C2200" />
            <stop offset="1" stop-color="#7A4400" />
        </linearGradient>
        <radialGradient id="paint10_radial_920_317" cx="0" cy="0" r="1" gradientUnits="userSpaceOnUse"
            gradientTransform="translate(27.4555 19.7772) rotate(4.52558) scale(2.59186 1.83784)">
            <stop offset="0.00132565" stop-color="#7A4400" />
            <stop offset="1" stop-color="#643800" />
        </radialGradient>
        <linearGradient id="paint11_linear_920_317" x1="27.203" y1="16.5151" x2="27.4087" y2="19.3362"
            gradientUnits="userSpaceOnUse">
            <stop offset="0.00132565" stop-color="#3C2200" />
            <stop offset="1" stop-color="#512D00" />
        </linearGradient>
    </defs>
    <path
        d="M21 37.7999C30.2784 37.7999 37.8 30.2783 37.8 21C37.8 11.7216 30.2784 4.19995 21 4.19995C11.7216 4.19995 4.20001 11.7216 4.20001 21C4.20001 30.2783 11.7216 37.7999 21 37.7999Z"
        fill="url(#paint0_radial_920_317)" />
    <path opacity="0.5"
        d="M21 37.7999C30.2784 37.7999 37.8 30.2783 37.8 21C37.8 11.7216 30.2784 4.19995 21 4.19995C11.7216 4.19995 4.20001 11.7216 4.20001 21C4.20001 30.2783 11.7216 37.7999 21 37.7999Z"
        fill="url(#paint1_radial_920_317)" />
    <path
        d="M32.34 23.8453C32.214 23.7928 32.0775 23.7928 31.9515 23.8243C28.4025 24.8323 24.7275 25.3468 21 25.3468C17.283 25.3468 13.5975 24.8323 10.0485 23.8243C9.92248 23.7823 9.78598 23.7928 9.65998 23.8453C9.27148 24.0028 8.67298 24.5803 9.47098 26.7958C10.6785 29.6202 13.818 34.5867 21.0105 34.5867C28.1715 34.5867 31.332 29.6098 32.5395 26.7853C33.327 24.5803 32.7285 24.0028 32.34 23.8453Z"
        fill="url(#paint2_radial_920_317)" />
    <path
        d="M16.5585 13.0723C16.38 12.4213 15.561 12.2113 14.3535 12.5473C13.3245 12.8308 11.235 14.0278 10.248 16.4533C10.0695 16.9048 10.563 16.9783 10.773 16.6633C11.4975 15.5923 13.7655 13.8283 15.813 13.4923C16.6425 13.3663 16.5585 13.0723 16.5585 13.0723Z"
        fill="url(#paint3_linear_920_317)" />
    <path
        d="M16.4536 18.2911C15.2881 17.5666 13.7866 17.6506 12.6946 18.4696C12.1381 18.8896 11.5921 19.5301 11.2666 20.5276C11.2141 20.6956 11.1721 20.8741 11.1616 21.0526C11.1406 21.4096 11.3926 21.7351 11.7916 21.3571C14.8996 18.4276 17.0731 21.4411 17.0731 21.4411C17.4931 21.7456 17.9236 21.1156 17.8396 20.5276C17.8186 20.3596 17.7976 20.1811 17.7451 20.0236C17.5141 19.1731 16.9996 18.6376 16.4536 18.2911Z"
        fill="url(#paint4_radial_920_317)" />
    <path
        d="M21 33.8101C23.9715 33.8101 26.208 32.8966 27.8775 31.6471C26.04 30.8176 23.7825 30.2716 21 30.2716C18.2175 30.2716 15.9495 30.8176 14.112 31.6471C15.7815 32.8966 18.018 33.8101 21 33.8101Z"
        fill="url(#paint5_radial_920_317)" />
    <path
        d="M32.1195 23.793C32.0985 23.793 32.067 23.793 32.046 23.8035C28.4655 24.8325 24.7485 25.3575 21 25.3575C17.241 25.3575 13.524 24.8325 9.954 23.8035C9.933 23.793 9.9015 23.793 9.8805 23.793C9.639 23.814 8.484 24.0555 9.471 26.796C9.954 27.9405 10.7625 29.421 12.0225 30.7965C10.8465 29.4 12.2955 28.623 14.889 28.938C17.4825 29.253 21.0105 29.253 21.0105 29.253C21.0105 29.253 24.549 29.2425 27.132 28.938C29.7255 28.623 31.1745 29.4 29.9985 30.7965C31.2585 29.421 32.0565 27.9405 32.55 26.796C33.516 24.0555 32.361 23.814 32.1195 23.793Z"
        fill="url(#paint6_linear_920_317)" />
    <path
        d="M30.1245 27.6361C31.1115 27.4261 31.8465 26.6071 31.941 25.5991L32.0355 24.6226C28.4655 25.6306 24.7485 26.1451 21 26.1451C17.2515 26.1451 13.5345 25.6306 9.95395 24.6226L10.0484 25.5991C10.1429 26.6071 10.8884 27.4261 11.8649 27.6361C14.847 28.2766 17.913 28.6125 20.9895 28.6125C24.0765 28.6125 27.1425 28.2871 30.1245 27.6361Z"
        fill="url(#paint7_radial_920_317)" />
    <path
        d="M17.7556 20.0236C17.6401 19.6666 17.4931 19.3726 17.3356 19.1206C17.0836 18.7636 16.7791 18.5011 16.4641 18.3016C15.2986 17.5771 13.7971 17.6611 12.7051 18.4801C12.1486 18.9001 11.6026 19.5406 11.2771 20.5381C11.2456 20.6326 11.2246 20.7376 11.2036 20.8426C11.2036 20.8426 11.2036 20.8426 11.2036 20.8531C12.5686 18.7216 14.5426 18.5746 14.5426 18.5746C14.5426 18.5746 16.4956 18.4066 17.8186 20.3176C17.7976 20.2126 17.7766 20.1181 17.7556 20.0236Z"
        fill="url(#paint8_linear_920_317)" />
    <path
        d="M25.4415 13.0723C25.62 12.4213 26.439 12.2113 27.6465 12.5473C28.6755 12.8308 30.765 14.0278 31.752 16.4533C31.9305 16.9048 31.437 16.9783 31.227 16.6633C30.5025 15.5923 28.2345 13.8283 26.187 13.4923C25.3575 13.3663 25.4415 13.0723 25.4415 13.0723Z"
        fill="url(#paint9_linear_920_317)" />
    <path
        d="M25.5466 18.2911C26.7121 17.5666 28.2136 17.6506 29.3056 18.4696C29.8621 18.8896 30.4081 19.5301 30.7336 20.5276C30.7861 20.6956 30.8281 20.8741 30.8386 21.0526C30.8596 21.4096 30.6076 21.7351 30.2086 21.3571C27.1006 18.4276 24.9271 21.4411 24.9271 21.4411C24.5071 21.7456 24.0766 21.1156 24.1606 20.5276C24.1816 20.3596 24.2026 20.1811 24.2551 20.0236C24.4861 19.1731 25.0006 18.6376 25.5466 18.2911Z"
        fill="url(#paint10_radial_920_317)" />
    <path
        d="M24.2445 20.0236C24.36 19.6666 24.507 19.3726 24.6645 19.1206C24.9165 18.7636 25.221 18.5011 25.536 18.3016C26.7015 17.5771 28.203 17.6611 29.295 18.4801C29.8515 18.9001 30.3975 19.5406 30.723 20.5381C30.7545 20.6326 30.7755 20.7376 30.7965 20.8426C30.7965 20.8426 30.7965 20.8426 30.7965 20.8531C29.4315 18.7216 27.4575 18.5746 27.4575 18.5746C27.4575 18.5746 25.5045 18.4066 24.1815 20.3176C24.2025 20.2126 24.2235 20.1181 24.2445 20.0236Z"
        fill="url(#paint11_linear_920_317)" />
</svg>
