<svg width="42" height="42" viewBox="0 0 42 42" fill="none" xmlns="http://www.w3.org/2000/svg">
    <defs>
        <radialGradient id="paint0_radial_920_260" cx="0" cy="0" r="1" gradientUnits="userSpaceOnUse"
            gradientTransform="translate(17.6904 14.1915) scale(20.267)">
            <stop stop-color="#FFE030" />
            <stop offset="1" stop-color="#FFB92E" />
        </radialGradient>
        <radialGradient id="paint1_radial_920_260" cx="0" cy="0" r="1" gradientUnits="userSpaceOnUse"
            gradientTransform="translate(17.6904 14.1915) scale(15.945)">
            <stop stop-color="#FFEA5F" />
            <stop offset="1" stop-color="#FFBC47" stop-opacity="0" />
        </radialGradient>
        <linearGradient id="paint2_linear_920_260" x1="13.7572" y1="13.4214" x2="13.7572" y2="11.6511"
            gradientUnits="userSpaceOnUse">
            <stop offset="0.00132565" stop-color="#3C2200" />
            <stop offset="1" stop-color="#7A4400" />
        </linearGradient>
        <radialGradient id="paint3_radial_920_260" cx="0" cy="0" r="1" gradientUnits="userSpaceOnUse"
            gradientTransform="translate(15.0257 18.0769) rotate(73.8539) scale(2.37372 1.53576)">
            <stop offset="0.00132565" stop-color="#7A4400" />
            <stop offset="1" stop-color="#643800" />
        </radialGradient>
        <linearGradient id="paint4_linear_920_260" x1="15.5109" y1="15.5515" x2="15.5109" y2="17.8315"
            gradientUnits="userSpaceOnUse">
            <stop offset="0.00132565" stop-color="#3C2200" />
            <stop offset="1" stop-color="#512D00" />
        </linearGradient>
        <linearGradient id="paint5_linear_920_260" x1="28.2344" y1="13.4214" x2="28.2344" y2="11.6511"
            gradientUnits="userSpaceOnUse">
            <stop offset="0.00132565" stop-color="#3C2200" />
            <stop offset="1" stop-color="#7A4400" />
        </linearGradient>
        <radialGradient id="paint6_radial_920_260" cx="0" cy="0" r="1" gradientUnits="userSpaceOnUse"
            gradientTransform="translate(25.9961 18.0772) rotate(73.8539) scale(2.37372 1.53576)">
            <stop offset="0.00132565" stop-color="#7A4400" />
            <stop offset="1" stop-color="#643800" />
        </radialGradient>
        <linearGradient id="paint7_linear_920_260" x1="26.4808" y1="15.5515" x2="26.4808" y2="17.8315"
            gradientUnits="userSpaceOnUse">
            <stop offset="0.00132565" stop-color="#3C2200" />
            <stop offset="1" stop-color="#512D00" />
        </linearGradient>
        <linearGradient id="paint8_linear_920_260" x1="20.9958" y1="27.1015" x2="20.9958" y2="29.6095"
            gradientUnits="userSpaceOnUse">
            <stop offset="0.00132565" stop-color="#3C2200" />
            <stop offset="1" stop-color="#512D00" />
        </linearGradient>
    </defs>
    <path
        d="M21 37.7999C30.2784 37.7999 37.8 30.2783 37.8 21C37.8 11.7216 30.2784 4.19995 21 4.19995C11.7216 4.19995 4.20001 11.7216 4.20001 21C4.20001 30.2783 11.7216 37.7999 21 37.7999Z"
        fill="url(#paint0_radial_920_260)" />
    <path opacity="0.5"
        d="M21 37.7999C30.2784 37.7999 37.8 30.2783 37.8 21C37.8 11.7216 30.2784 4.19995 21 4.19995C11.7216 4.19995 4.20001 11.7216 4.20001 21C4.20001 30.2783 11.7216 37.7999 21 37.7999Z"
        fill="url(#paint1_radial_920_260)" />
    <path
        d="M17.304 12.2954C17.304 11.6234 16.5795 11.2034 15.3195 11.2034C14.259 11.2034 11.9175 11.7914 10.311 13.8599C10.017 14.2379 10.4685 14.4479 10.7625 14.2064C11.7495 13.3664 14.406 12.2849 16.4745 12.5159C17.304 12.5999 17.304 12.2954 17.304 12.2954Z"
        fill="url(#paint2_linear_920_260)" />
    <path
        d="M15.5085 20.4539C16.4016 20.4539 17.1255 19.3586 17.1255 18.0074C17.1255 16.6562 16.4016 15.5609 15.5085 15.5609C14.6155 15.5609 13.8915 16.6562 13.8915 18.0074C13.8915 19.3586 14.6155 20.4539 15.5085 20.4539Z"
        fill="url(#paint3_radial_920_260)" />
    <path
        d="M15.5085 16.3904C16.2015 16.3904 16.8105 16.9994 17.1255 17.8919C17.1045 16.5689 16.3905 15.5084 15.5085 15.5084C14.6265 15.5084 13.9125 16.5689 13.8915 17.8919C14.2065 16.9994 14.8155 16.3904 15.5085 16.3904Z"
        fill="url(#paint4_linear_920_260)" />
    <path
        d="M24.696 12.2954C24.696 11.6234 25.4205 11.2034 26.6805 11.2034C27.741 11.2034 30.0825 11.7914 31.689 13.8599C31.983 14.2379 31.5315 14.4479 31.2375 14.2064C30.2505 13.3664 27.594 12.2849 25.5255 12.5159C24.6855 12.5999 24.696 12.2954 24.696 12.2954Z"
        fill="url(#paint5_linear_920_260)" />
    <path
        d="M28.4234 25.914C28.2869 25.893 28.1399 25.935 28.0454 26.0295C26.2394 27.72 23.4569 28.6335 21.3569 28.6335H20.9999H20.6429C18.5429 28.6335 15.7604 27.72 13.9544 26.0295C13.8494 25.935 13.7129 25.893 13.5764 25.914C13.4294 25.9455 13.3559 26.103 13.4294 26.229C14.9729 28.896 17.8184 30.5445 20.9159 30.5445H21.0104H21.1049C24.2024 30.5445 27.0479 28.896 28.5914 26.229C28.6439 26.103 28.5704 25.9455 28.4234 25.914Z"
        fill="#643800" />
    <path
        d="M26.481 20.4539C27.374 20.4539 28.098 19.3586 28.098 18.0074C28.098 16.6562 27.374 15.5609 26.481 15.5609C25.5879 15.5609 24.864 16.6562 24.864 18.0074C24.864 19.3586 25.5879 20.4539 26.481 20.4539Z"
        fill="url(#paint6_radial_920_260)" />
    <path
        d="M26.481 16.3904C25.788 16.3904 25.179 16.9994 24.864 17.8919C24.885 16.5689 25.599 15.5084 26.481 15.5084C27.363 15.5084 28.077 16.5689 28.098 17.8919C27.783 16.9994 27.174 16.3904 26.481 16.3904Z"
        fill="url(#paint7_linear_920_260)" />
    <path
        d="M28.4234 25.914C28.2869 25.893 28.1399 25.935 28.0454 26.0295C26.2394 27.72 23.4569 28.6335 21.3569 28.6335H20.9999H20.6429C18.5429 28.6335 15.7604 27.72 13.9544 26.0295C13.8494 25.935 13.7129 25.893 13.5764 25.914C13.4294 25.9455 13.3559 26.103 13.4294 26.229C13.4399 26.2605 13.4609 26.2815 13.4819 26.3025C13.6289 26.2185 13.7864 26.1345 13.9439 26.313C15.6554 28.2345 18.1964 29.3895 20.9159 29.3895H21.0104H21.1049C23.8454 29.3895 26.3969 28.224 28.1084 26.271C28.2659 26.0925 28.4129 26.1765 28.5494 26.271C28.5599 26.25 28.5704 26.2395 28.5809 26.2185C28.6439 26.103 28.5704 25.9455 28.4234 25.914Z"
        fill="url(#paint8_linear_920_260)" />
</svg>
